<?xml version="1.0" encoding="UTF-8" standalone="no"?>
<svg width="31px" height="31px" viewBox="0 0 31 31" version="1.1" xmlns="http://www.w3.org/2000/svg" xmlns:xlink="http://www.w3.org/1999/xlink">
    <!-- Generator: Sketch 39.1 (31720) - http://www.bohemiancoding.com/sketch -->
    <title>help icon</title>
    <desc>Created with Sketch.</desc>
    <defs></defs>
    <g id="Page-1" stroke="none" stroke-width="1" fill="none" fill-rule="evenodd">
        <g id="Header" transform="translate(-1458.000000, -355.000000)">
            <g id="PLACEHOLDER-GLOBAL-HEADER-Copy-2" transform="translate(143.000000, 338.000000)">
                <g id="help-icon" transform="translate(1317.000000, 19.000000)">
                    <path d="M10.5138507,8.35857206 C11.1119595,7.92904783 11.8479091,7.71428571 12.7205008,7.71428571 C13.8663766,7.71428571 14.8192755,8.01975481 15.5768001,8.62935908 C16.3355234,9.23896335 16.7142857,10.1420314 16.7142857,11.3385632 C16.7142857,12.0722226 16.5500755,12.6898304 16.221655,13.1927206 C16.028678,13.4968557 15.6595046,13.8863622 15.1141348,14.3612399 L14.5735594,14.8267802 C14.2810974,15.0802261 14.0857232,15.3776917 13.989834,15.715175 C13.9287046,15.931271 13.896342,16.2634187 13.8915475,16.7142857 L11.8299299,16.7142857 C11.8598952,15.7618624 11.941401,15.1029029 12.0732487,14.7374071 C12.2038977,14.3745792 12.5431057,13.9543924 13.0884755,13.4808486 L13.6422356,12.9979674 C13.8244251,12.8445658 13.9718547,12.679159 14.0821273,12.497745 C14.2846932,12.1882742 14.3865755,11.846789 14.3865755,11.4746236 C14.3865755,11.0450994 14.2739057,10.654259 14.0485661,10.3007686 C13.8244251,9.94727816 13.4121016,9.7711999 12.8151913,9.7711999 C12.22787,9.7711999 11.8119506,9.98862987 11.5662346,10.4248237 C11.3217171,10.8583497 11.1982598,11.3105507 11.1982598,11.7787588 L9,11.7787588 C9.06112936,10.1687099 9.56574625,9.02953694 10.5138507,8.35857206 L10.5138507,8.35857206 Z M11.5714286,18 L14.1428571,18 L14.1428571,20.5714286 L11.5714286,20.5714286 L11.5714286,18 Z" id="Fill-1" fill="#8A8A8A"></path>
                    <path d="M27,13.5005825 C27,20.9557282 20.9557282,27 13.5005825,27 C6.04427184,27 0,20.9557282 0,13.5005825 C0,6.04427184 6.04427184,0 13.5005825,0 C20.9557282,0 27,6.04427184 27,13.5005825 L27,13.5005825 Z" id="Stroke-2" stroke="#8A8A8A" stroke-width="3"></path>
                </g>
            </g>
        </g>
    </g>
</svg>